<mxfile host="app.diagrams.net" modified="2021-06-06T13:24:29.264Z" agent="5.0 (Windows NT 10.0; Win64; x64) AppleWebKit/537.36 (KHTML, like Gecko) Chrome/91.0.4472.77 Safari/537.36" etag="v9v9STenIhHGdaaq-UgX" version="14.7.3" type="github">
  <diagram id="C5RBs43oDa-KdzZeNtuy" name="Page-1">
    <mxGraphModel dx="1038" dy="1716" grid="1" gridSize="10" guides="1" tooltips="1" connect="1" arrows="1" fold="1" page="1" pageScale="1" pageWidth="827" pageHeight="1169" math="0" shadow="0">
      <root>
        <mxCell id="WIyWlLk6GJQsqaUBKTNV-0" />
        <mxCell id="WIyWlLk6GJQsqaUBKTNV-1" parent="WIyWlLk6GJQsqaUBKTNV-0" />
        <mxCell id="enkGTG043NM4yIpSYiS5-14" value="" style="edgeStyle=orthogonalEdgeStyle;rounded=0;orthogonalLoop=1;jettySize=auto;html=1;" edge="1" parent="WIyWlLk6GJQsqaUBKTNV-1" source="WIyWlLk6GJQsqaUBKTNV-3" target="62lgIi-LjrvPgBXsF704-0">
          <mxGeometry relative="1" as="geometry" />
        </mxCell>
        <mxCell id="WIyWlLk6GJQsqaUBKTNV-3" value="List Scheduling (min latency, resources constrained)&amp;nbsp;&lt;br&gt;One resource per type &lt;br&gt;(smallest functional unit selected)" style="rounded=1;whiteSpace=wrap;html=1;fontSize=12;glass=0;strokeWidth=1;shadow=0;" parent="WIyWlLk6GJQsqaUBKTNV-1" vertex="1">
          <mxGeometry x="230" y="-20" width="220" height="90" as="geometry" />
        </mxCell>
        <mxCell id="WIyWlLk6GJQsqaUBKTNV-4" value="used=&#39;0&#39;" style="rounded=0;html=1;jettySize=auto;orthogonalLoop=1;fontSize=11;endArrow=block;endFill=0;endSize=8;strokeWidth=1;shadow=0;labelBackgroundColor=none;edgeStyle=orthogonalEdgeStyle;" parent="WIyWlLk6GJQsqaUBKTNV-1" edge="1">
          <mxGeometry x="0.4545" y="-31" relative="1" as="geometry">
            <mxPoint as="offset" />
            <mxPoint x="291" y="280" as="sourcePoint" />
            <mxPoint x="221" y="320" as="targetPoint" />
            <Array as="points">
              <mxPoint x="221" y="280" />
            </Array>
          </mxGeometry>
        </mxCell>
        <mxCell id="WIyWlLk6GJQsqaUBKTNV-6" value="Check &quot;used&quot;" style="rhombus;whiteSpace=wrap;html=1;shadow=0;fontFamily=Helvetica;fontSize=12;align=center;strokeWidth=1;spacing=6;spacingTop=-4;" parent="WIyWlLk6GJQsqaUBKTNV-1" vertex="1">
          <mxGeometry x="290" y="240" width="100" height="80" as="geometry" />
        </mxCell>
        <mxCell id="WIyWlLk6GJQsqaUBKTNV-8" value="used=&#39;1&#39;" style="rounded=0;html=1;jettySize=auto;orthogonalLoop=1;fontSize=11;endArrow=block;endFill=0;endSize=8;strokeWidth=1;shadow=0;labelBackgroundColor=none;edgeStyle=orthogonalEdgeStyle;" parent="WIyWlLk6GJQsqaUBKTNV-1" edge="1">
          <mxGeometry x="0.3333" y="29" relative="1" as="geometry">
            <mxPoint as="offset" />
            <mxPoint x="391" y="280" as="sourcePoint" />
            <mxPoint x="471" y="320" as="targetPoint" />
          </mxGeometry>
        </mxCell>
        <mxCell id="62lgIi-LjrvPgBXsF704-30" value="" style="edgeStyle=orthogonalEdgeStyle;rounded=0;orthogonalLoop=1;jettySize=auto;html=1;" parent="WIyWlLk6GJQsqaUBKTNV-1" source="62lgIi-LjrvPgBXsF704-0" target="WIyWlLk6GJQsqaUBKTNV-6" edge="1">
          <mxGeometry relative="1" as="geometry" />
        </mxCell>
        <mxCell id="62lgIi-LjrvPgBXsF704-0" value="Initialization of latency_optimized &amp;lt;fu, latency&amp;gt; and resources_to_incr &amp;lt;op, used&amp;gt;, ( flag &quot;used&quot; =&#39;0&#39;)" style="rounded=1;whiteSpace=wrap;html=1;" parent="WIyWlLk6GJQsqaUBKTNV-1" vertex="1">
          <mxGeometry x="252" y="100" width="176" height="85" as="geometry" />
        </mxCell>
        <mxCell id="62lgIi-LjrvPgBXsF704-6" value="" style="endArrow=classic;html=1;entryX=0.5;entryY=0;entryDx=0;entryDy=0;" parent="WIyWlLk6GJQsqaUBKTNV-1" target="WIyWlLk6GJQsqaUBKTNV-6" edge="1">
          <mxGeometry width="50" height="50" relative="1" as="geometry">
            <mxPoint x="340" y="189" as="sourcePoint" />
            <mxPoint x="410" y="250" as="targetPoint" />
          </mxGeometry>
        </mxCell>
        <mxCell id="62lgIi-LjrvPgBXsF704-26" style="edgeStyle=orthogonalEdgeStyle;rounded=0;orthogonalLoop=1;jettySize=auto;html=1;exitX=0.5;exitY=1;exitDx=0;exitDy=0;" parent="WIyWlLk6GJQsqaUBKTNV-1" source="62lgIi-LjrvPgBXsF704-11" edge="1">
          <mxGeometry relative="1" as="geometry">
            <mxPoint x="340" y="540" as="targetPoint" />
            <Array as="points">
              <mxPoint x="220" y="440" />
              <mxPoint x="340" y="440" />
            </Array>
          </mxGeometry>
        </mxCell>
        <mxCell id="62lgIi-LjrvPgBXsF704-11" value="Scan all the fu associated to the op to find the one that gives the best latency with less area" style="rounded=1;whiteSpace=wrap;html=1;fontSize=12;glass=0;strokeWidth=1;shadow=0;" parent="WIyWlLk6GJQsqaUBKTNV-1" vertex="1">
          <mxGeometry x="130" y="320" width="180" height="80" as="geometry" />
        </mxCell>
        <mxCell id="62lgIi-LjrvPgBXsF704-28" style="edgeStyle=orthogonalEdgeStyle;rounded=0;orthogonalLoop=1;jettySize=auto;html=1;exitX=0.5;exitY=1;exitDx=0;exitDy=0;" parent="WIyWlLk6GJQsqaUBKTNV-1" source="62lgIi-LjrvPgBXsF704-12" edge="1">
          <mxGeometry relative="1" as="geometry">
            <mxPoint x="340" y="210" as="targetPoint" />
            <Array as="points">
              <mxPoint x="340" y="570" />
              <mxPoint x="610" y="570" />
              <mxPoint x="610" y="210" />
            </Array>
          </mxGeometry>
        </mxCell>
        <mxCell id="62lgIi-LjrvPgBXsF704-12" value="The list latency_optimized is updated with the corresponding &amp;lt;fu, latency&amp;gt;" style="whiteSpace=wrap;html=1;rounded=1;shadow=0;strokeWidth=1;glass=0;" parent="WIyWlLk6GJQsqaUBKTNV-1" vertex="1">
          <mxGeometry x="255" y="460" width="170" height="100" as="geometry" />
        </mxCell>
        <mxCell id="62lgIi-LjrvPgBXsF704-27" style="edgeStyle=orthogonalEdgeStyle;rounded=0;orthogonalLoop=1;jettySize=auto;html=1;exitX=0.5;exitY=1;exitDx=0;exitDy=0;" parent="WIyWlLk6GJQsqaUBKTNV-1" source="62lgIi-LjrvPgBXsF704-14" edge="1">
          <mxGeometry relative="1" as="geometry">
            <mxPoint x="340" y="460" as="targetPoint" />
          </mxGeometry>
        </mxCell>
        <mxCell id="62lgIi-LjrvPgBXsF704-14" value="Check the fu associated to the op that gives the best latency with less area. This fu is temporary added to&amp;nbsp; lista_risorse" style="rounded=1;whiteSpace=wrap;html=1;" parent="WIyWlLk6GJQsqaUBKTNV-1" vertex="1">
          <mxGeometry x="370" y="320" width="200" height="100" as="geometry" />
        </mxCell>
        <mxCell id="62lgIi-LjrvPgBXsF704-29" value="Foreach element in resources_to_incr" style="text;html=1;strokeColor=none;fillColor=none;align=center;verticalAlign=middle;whiteSpace=wrap;rounded=0;" parent="WIyWlLk6GJQsqaUBKTNV-1" vertex="1">
          <mxGeometry x="620" y="275" width="120" height="55" as="geometry" />
        </mxCell>
        <mxCell id="enkGTG043NM4yIpSYiS5-3" value="" style="endArrow=classic;html=1;" edge="1" parent="WIyWlLk6GJQsqaUBKTNV-1">
          <mxGeometry width="50" height="50" relative="1" as="geometry">
            <mxPoint x="339.66" y="560" as="sourcePoint" />
            <mxPoint x="339.66" y="610" as="targetPoint" />
          </mxGeometry>
        </mxCell>
        <mxCell id="enkGTG043NM4yIpSYiS5-16" value="" style="edgeStyle=orthogonalEdgeStyle;rounded=0;orthogonalLoop=1;jettySize=auto;html=1;" edge="1" parent="WIyWlLk6GJQsqaUBKTNV-1" source="enkGTG043NM4yIpSYiS5-4" target="enkGTG043NM4yIpSYiS5-6">
          <mxGeometry relative="1" as="geometry" />
        </mxCell>
        <mxCell id="enkGTG043NM4yIpSYiS5-4" value="Scanned executable operations to find the corresping resources not yet allocated" style="rounded=1;whiteSpace=wrap;html=1;" vertex="1" parent="WIyWlLk6GJQsqaUBKTNV-1">
          <mxGeometry x="255" y="610" width="170" height="80" as="geometry" />
        </mxCell>
        <mxCell id="enkGTG043NM4yIpSYiS5-5" value="end of the loop" style="text;html=1;strokeColor=none;fillColor=none;align=center;verticalAlign=middle;whiteSpace=wrap;rounded=0;" vertex="1" parent="WIyWlLk6GJQsqaUBKTNV-1">
          <mxGeometry x="252" y="585" width="90" height="20" as="geometry" />
        </mxCell>
        <mxCell id="enkGTG043NM4yIpSYiS5-17" value="" style="edgeStyle=orthogonalEdgeStyle;rounded=0;orthogonalLoop=1;jettySize=auto;html=1;" edge="1" parent="WIyWlLk6GJQsqaUBKTNV-1" source="enkGTG043NM4yIpSYiS5-6" target="enkGTG043NM4yIpSYiS5-11">
          <mxGeometry relative="1" as="geometry" />
        </mxCell>
        <mxCell id="enkGTG043NM4yIpSYiS5-6" value="Temporary added resource&lt;br&gt;&amp;nbsp;to&amp;nbsp; lista_risorse&amp;nbsp;" style="rounded=1;whiteSpace=wrap;html=1;" vertex="1" parent="WIyWlLk6GJQsqaUBKTNV-1">
          <mxGeometry x="280" y="720" width="120" height="50" as="geometry" />
        </mxCell>
        <mxCell id="enkGTG043NM4yIpSYiS5-10" value="area available !=0" style="text;html=1;align=center;verticalAlign=middle;resizable=0;points=[];autosize=1;strokeColor=none;" vertex="1" parent="WIyWlLk6GJQsqaUBKTNV-1">
          <mxGeometry x="440" y="735" width="110" height="20" as="geometry" />
        </mxCell>
        <mxCell id="enkGTG043NM4yIpSYiS5-11" value="Check if the overall latency is improved and consequently update all related lists" style="rounded=1;whiteSpace=wrap;html=1;" vertex="1" parent="WIyWlLk6GJQsqaUBKTNV-1">
          <mxGeometry x="255" y="810" width="170" height="60" as="geometry" />
        </mxCell>
        <mxCell id="enkGTG043NM4yIpSYiS5-20" value="" style="endArrow=classic;html=1;" edge="1" parent="WIyWlLk6GJQsqaUBKTNV-1">
          <mxGeometry width="50" height="50" relative="1" as="geometry">
            <mxPoint x="340" y="785" as="sourcePoint" />
            <mxPoint x="340" y="705" as="targetPoint" />
            <Array as="points">
              <mxPoint x="440" y="785" />
              <mxPoint x="440" y="705" />
            </Array>
          </mxGeometry>
        </mxCell>
      </root>
    </mxGraphModel>
  </diagram>
</mxfile>
